<svg
  width="5195"
  height="1242"
  viewBox="0 0 5195 1242"
  fill="none"
  xmlns="http://www.w3.org/2000/svg"
>
  <g clip-path="url(#clip0_167_2)">
    <path
      d="M118.03 1123.95H0.409602C0.279579 1122.71 0.10955 1121.44 0.0295363 1120.17C-0.030474 1119.01 0.0195346 1117.84 0.0195346 1116.67C0.0195346 937.439 0.0195346 758.22 0.0195346 578.991C0.0195346 506.748 15.8123 438.115 48.2479 373.604C92.4755 285.635 158.257 218.333 245.002 171.708C289.409 147.84 336.658 132.095 386.396 124.022C423.383 118.01 460.589 116.479 498.006 119.51C555.105 124.132 609.485 138.647 661.024 163.615C734.296 199.117 794.167 250.403 840.535 317.315C879.171 373.084 904.106 434.524 915.528 501.426C921.669 537.408 923.749 573.639 921.088 610.031C913.157 718.317 872.38 812.528 799.157 892.694C798.047 893.905 796.977 895.155 795.737 896.565C839.454 972.31 883.052 1047.85 927 1124H694.699C672.716 1085.94 650.582 1047.61 628.438 1009.27C519.329 1049.89 410.28 1050.73 300.291 1011.83C299.841 1018.21 300.131 1024.28 300.081 1030.32C300.031 1036.65 300.071 1042.99 300.071 1049.33V1123.99H182.061V1118.09C182.061 1045.23 182.061 972.37 182.061 899.516C182.061 793.152 182.011 686.777 182.081 580.412C182.131 508.488 206.085 445.457 254.153 392.07C296.241 345.335 348.5 315.535 410.56 304.871C503.006 288.986 584.42 313.154 653.132 377.025C697.31 418.098 725.065 469.085 735.286 528.635C751.049 620.505 727.335 701.581 664.214 770.174C622.247 815.769 569.888 843.768 508.687 854.051C435.265 866.386 367.283 851.721 305.082 810.657C303.832 809.837 302.552 809.057 301.282 808.276C301.182 808.216 300.981 808.306 300.351 808.377C300.271 809.487 300.101 810.727 300.101 811.968C300.081 833.975 300.171 855.982 300.001 877.989C299.971 881.39 301.212 882.971 304.082 884.441C339.288 902.377 376.405 914.091 415.601 919.263C524.8 933.678 633.429 895.685 709.082 816.189C756.91 765.923 787.185 706.513 799.037 638.141C818.191 527.604 783.165 415.308 702.401 335.431C654.212 287.776 596.783 256.986 530.461 243.111C496.975 236.109 463.129 234.278 429.014 237.609C352.64 245.072 285.909 274.521 229.379 326.278C174.32 376.685 139.524 438.875 124.551 512.039C119.99 534.307 118.03 556.854 118.04 579.601C118.09 758.66 118.07 937.719 118.07 1116.78V1123.97L118.03 1123.95ZM622.117 579.311C622.197 490.572 549.984 418.168 461.279 418.038C372.424 417.908 300.191 489.932 300.061 578.781C299.931 667.92 371.574 739.744 460.499 740.214C546.654 740.674 621.547 671.332 622.127 579.311H622.117Z"
      fill="white"
    />
  </g>
  <path
    d="M1267.06 872V382H1502.96C1548.69 382 1588.12 389.467 1621.26 404.4C1654.86 419.333 1680.76 440.8 1698.96 468.8C1717.16 496.333 1726.26 529 1726.26 566.8C1726.26 604.6 1717.16 637.267 1698.96 664.8C1680.76 692.333 1654.86 713.8 1621.26 729.2C1588.12 744.133 1548.69 751.6 1502.96 751.6H1358.76L1432.26 680.9V872H1267.06ZM1432.26 699.1L1358.76 624.2H1492.46C1515.32 624.2 1532.12 619.067 1542.86 608.8C1554.06 598.533 1559.66 584.533 1559.66 566.8C1559.66 549.067 1554.06 535.067 1542.86 524.8C1532.12 514.533 1515.32 509.4 1492.46 509.4H1358.76L1432.26 434.5V699.1ZM1766.44 872V382H1931.64V872H1766.44ZM1997.16 872V382H2233.06C2278.8 382 2318.23 389.467 2351.36 404.4C2384.96 419.333 2410.86 440.8 2429.06 468.8C2447.26 496.333 2456.36 529 2456.36 566.8C2456.36 604.6 2447.26 637.267 2429.06 664.8C2410.86 692.333 2384.96 713.8 2351.36 729.2C2318.23 744.133 2278.8 751.6 2233.06 751.6H2088.86L2162.36 680.9V872H1997.16ZM2162.36 699.1L2088.86 624.2H2222.56C2245.43 624.2 2262.23 619.067 2272.96 608.8C2284.16 598.533 2289.76 584.533 2289.76 566.8C2289.76 549.067 2284.16 535.067 2272.96 524.8C2262.23 514.533 2245.43 509.4 2222.56 509.4H2088.86L2162.36 434.5V699.1ZM2647.74 564H2866.14V683H2647.74V564ZM2658.94 747.4H2903.94V872H2496.54V382H2894.84V506.6H2658.94V747.4ZM2953.54 872V382H3189.44C3235.17 382 3274.6 389.467 3307.74 404.4C3341.34 419.333 3367.24 440.8 3385.44 468.8C3403.64 496.333 3412.74 529 3412.74 566.8C3412.74 604.6 3403.64 637.267 3385.44 664.8C3367.24 691.867 3341.34 712.633 3307.74 727.1C3274.6 741.567 3235.17 748.8 3189.44 748.8H3045.24L3118.74 680.9V872H2953.54ZM3246.84 872L3126.44 693.5H3301.44L3423.24 872H3246.84ZM3118.74 699.1L3045.24 624.2H3178.94C3201.8 624.2 3218.6 619.067 3229.34 608.8C3240.54 598.533 3246.14 584.533 3246.14 566.8C3246.14 549.067 3240.54 535.067 3229.34 524.8C3218.6 514.533 3201.8 509.4 3178.94 509.4H3045.24L3118.74 434.5V699.1ZM3461.12 872V382H3626.32V872H3461.12ZM3691.85 872V382H3933.35C3987.95 382 4036.01 392.033 4077.55 412.1C4119.08 431.7 4151.51 459.7 4174.85 496.1C4198.18 532.5 4209.85 575.9 4209.85 626.3C4209.85 677.167 4198.18 721.033 4174.85 757.9C4151.51 794.3 4119.08 822.533 4077.55 842.6C4036.01 862.2 3987.95 872 3933.35 872H3691.85ZM3857.05 743.2H3926.35C3949.68 743.2 3969.98 738.767 3987.25 729.9C4004.98 721.033 4018.75 707.967 4028.55 690.7C4038.35 672.967 4043.25 651.5 4043.25 626.3C4043.25 601.567 4038.35 580.567 4028.55 563.3C4018.75 546.033 4004.98 532.967 3987.25 524.1C3969.98 515.233 3949.68 510.8 3926.35 510.8H3857.05V743.2ZM4407.37 564H4625.77V683H4407.37V564ZM4418.57 747.4H4663.57V872H4256.17V382H4654.47V506.6H4418.57V747.4ZM4713.16 872V382H4949.06C4994.8 382 5034.23 389.467 5067.36 404.4C5100.96 419.333 5126.86 440.8 5145.06 468.8C5163.26 496.333 5172.36 529 5172.36 566.8C5172.36 604.6 5163.26 637.267 5145.06 664.8C5126.86 691.867 5100.96 712.633 5067.36 727.1C5034.23 741.567 4994.8 748.8 4949.06 748.8H4804.86L4878.36 680.9V872H4713.16ZM5006.46 872L4886.06 693.5H5061.06L5182.86 872H5006.46ZM4878.36 699.1L4804.86 624.2H4938.56C4961.43 624.2 4978.23 619.067 4988.96 608.8C5000.16 598.533 5005.76 584.533 5005.76 566.8C5005.76 549.067 5000.16 535.067 4988.96 524.8C4978.23 514.533 4961.43 509.4 4938.56 509.4H4804.86L4878.36 434.5V699.1Z"
    fill="white"
  />
  <defs>
    <clipPath id="clip0_167_2">
      <rect
        width="927"
        height="1006"
        fill="white"
        transform="translate(0 118)"
      />
    </clipPath>
  </defs>
</svg>
